#!OML:ASF H:\Swim 2\Project 1\Capture day 1\Session 1\male.ASF
:FULLY-SPECIFIED
:DEGREES
1295
root 7.42504 9.3395 10.5074 83.9823 1.98094 4.28277
lowerback 4.64348 1.16807 -2.16382
upperback 1.40993 1.45889 0.896255
thorax -1.23088 0.725368 2.05151
lowerneck -8.32827 -14.9555 -20.6175
upperneck 38.834 -19.9022 10.2055
head 20.0933 -9.50366 4.31231
rclavicle 0 1.78906e-015
rhumerus 46.4381 19.4651 -6.02098
rradius 114.742
rwrist -46.5998
rhand -55.6365 -3.61013
rfingers 7.12502
rthumb -27.9888 -31.5433
lclavicle 0 1.78906e-015
lhumerus 64.5537 -20.8732 13.0174
lradius 110.324
lwrist 49.3716
lhand -57.5567 -15.8626
lfingers 7.12502
lthumb -29.8229 11.7566
rfemur -75.614 -15.8506 25.417
rtibia 113.955
rfoot 20.9222 16.9701
rtoes -38.1969
lfemur -69.1732 3.99746 -21.4392
ltibia 114.837
lfoot -0.675441 -11.2895
ltoes 5.0681
1296
root 7.42332 9.34699 10.5102 83.9224 1.97291 4.3128
lowerback 4.69793 1.16406 -2.18131
upperback 1.3937 1.45144 0.883363
thorax -1.27766 0.722414 2.04726
lowerneck -8.20822 -14.9483 -20.9049
upperneck 38.4972 -20.0505 10.7648
head 20.0501 -9.55949 4.58674
rclavicle -9.54166e-015 -1.01629e-014
rhumerus 46.693 18.5976 -6.40323
rradius 114.508
rwrist -46.4234
rhand -55.6317 -3.46388
rfingers 7.12502
rthumb -27.9842 -31.3978
lclavicle -9.54166e-015 -1.01629e-014
lhumerus 64.6306 -20.2246 13.716
lradius 110.045
lwrist 48.8088
lhand -57.4331 -15.554
lfingers 7.12502
lthumb -29.7049 12.0863
rfemur -75.5671 -16.3005 25.0784
rtibia 114.937
rfoot 21.1977 17.3124
rtoes -37.9357
lfemur -69.0778 4.20207 -21.0684
ltibia 115.571
lfoot -0.98152 -11.4955
ltoes 4.57352
1297
root 7.42182 9.35472 10.5129 83.8688 1.96533 4.3416
lowerback 4.7417 1.1611 -2.19549
upperback 1.38001 1.44573 0.871255
thorax -1.31589 0.720199 2.0421
lowerneck -8.08986 -14.9366 -21.1508
upperneck 38.1769 -20.1758 11.2621
head 19.9937 -9.6065 4.83065
rclavicle -1.43125e-014 -7.1811e-015
rhumerus 46.9595 17.6827 -6.81009
rradius 114.247
rwrist -46.3774
rhand -55.5535 -3.3294
rfingers 7.12502
rthumb -27.9095 -31.2755
lclavicle -1.43125e-014 -7.1811e-015
lhumerus 64.7405 -19.5258 14.404
lradius 109.74
lwrist 48.37
lhand -57.3316 -15.6184
lfingers 7.12502
lthumb -29.608 12.0391
rfemur -75.4914 -16.7662 24.7035
rtibia 115.908
rfoot 21.4307 17.6716
rtoes -37.6043
lfemur -68.9474 4.40436 -20.6674
ltibia 116.294
lfoot -1.31058 -11.7395
ltoes 4.3932
1298
root 7.42053 9.36271 10.5154 83.82 1.96065 4.36842
lowerback 4.77572 1.16089 -2.20645
upperback 1.3688 1.44404 0.861792
thorax -1.34633 0.719856 2.03784
lowerneck -7.97378 -14.9175 -21.3489
upperneck 37.8803 -20.2701 11.6836
head 19.9217 -9.64149 5.03861
rclavicle 7.95139e-015 8.32411e-015
rhumerus 47.2369 16.7362 -7.2174
rradius 113.959
rwrist -46.43
rhand -55.4497 -3.20118
rfingers 7.12502
rthumb -27.8102 -31.1634
lclavicle 7.95139e-015 8.32411e-015
lhumerus 64.8914 -18.7834 15.0766
lradius 109.411
lwrist 48.0815
lhand -57.2894 -16.1389
lfingers 7.12502
lthumb -29.5678 11.5257
rfemur -75.3883 -17.2477 24.2937
rtibia 116.874
rfoot 21.6229 18.0139
rtoes -37.2048
lfemur -68.7777 4.60446 -20.2323
ltibia 117.011
lfoot -1.66019 -12.0205
ltoes 4.47875
1299
root 7.4195 9.37118 10.5193 83.7723 1.9583 4.39165
lowerback 4.80399 1.16957 -2.21941
upperback 1.35961 1.4542 0.857505
thorax -1.37229 0.725325 2.03944
lowerneck -7.85345 -14.8936 -21.4942
upperneck 37.6148 -20.3346 12.0164
head 19.8325 -9.66506 5.20377
rclavicle -2.70347e-014 -2.90723e-015
rhumerus 47.5029 15.796 -7.61293
rradius 113.64
rwrist -46.4981
rhand -55.3757 -3.08089
rfingers 7.12502
rthumb -27.7395 -31.0545
lclavicle -2.70347e-014 -2.90723e-015
lhumerus 65.0683 -18.0744 15.7504
lradius 109.05
lwrist 47.7428
lhand -57.2502 -16.5076
lfingers 7.12502
lthumb -29.5303 11.1637
rfemur -75.2424 -17.7476 23.8461
rtibia 117.827
rfoot 21.7371 18.349
rtoes -36.7175
lfemur -68.6052 4.80548 -19.7701
ltibia 117.749
lfoot -2.19554 -12.308
ltoes 4.29418
1300
root 7.4186 9.38003 10.5237 83.7171 1.95934 4.40568
lowerback 4.83658 1.18996 -2.23581
upperback 1.35359 1.47967 0.859241
thorax -1.39846 0.738357 2.04815
lowerneck -7.72951 -14.8704 -21.5948
upperneck 37.3749 -20.3827 12.2776
head 19.7314 -9.68192 5.33184
rclavicle 3.65764e-014 7.03201e-015
rhumerus 47.7557 14.8564 -7.994
rradius 113.309
rwrist -46.6398
rhand -55.317 -3.00577
rfingers 7.12502
rthumb -27.6833 -30.9884
lclavicle 3.65764e-014 7.03201e-015
lhumerus 65.284 -17.3744 16.4268
lradius 108.676
lwrist 47.4755
lhand -57.3056 -17.1349
lfingers 7.12502
lthumb -29.5832 10.527
rfemur -75.0509 -18.2557 23.3574
rtibia 118.775
rfoot 21.8078 18.6741
rtoes -36.2261
lfemur -68.3837 5.01675 -19.2719
ltibia 118.501
lfoot -2.70452 -12.6351
ltoes 4.23102
1301
root 7.41806 9.38923 10.5291 83.6662 1.96164 4.41694
lowerback 4.86068 1.2197 -2.25463
upperback 1.3483 1.51762 0.86532
thorax -1.41999 0.757528 2.06206
lowerneck -7.60763 -14.8501 -21.6517
upperneck 37.169 -20.4168 12.4654
head 19.6256 -9.69292 5.42163
rclavicle -1.59028e-015 1.28962e-014
rhumerus 47.9883 13.9539 -8.33828
rradius 112.962
rwrist -46.7634
rhand -55.3543 -2.94313
rfingers 7.12502
rthumb -27.7189 -30.92
lclavicle -1.59028e-015 1.28962e-014
lhumerus 65.5217 -16.7276 17.0842
lradius 108.301
lwrist 47.2027
lhand -57.3304 -17.4376
lfingers 7.12502
lthumb -29.6069 10.2202
rfemur -74.8236 -18.7785 22.8253
rtibia 119.72
rfoot 21.8453 19.0027
rtoes -35.754
lfemur -68.1695 5.23157 -18.7486
ltibia 119.298
lfoot -3.16786 -12.9655
ltoes 3.76771
1302
root 7.41776 9.39862 10.535 83.6134 1.96713 4.41972
lowerback 4.88425 1.25809 -2.27074
upperback 1.34487 1.56719 0.874437
thorax -1.43998 0.782421 2.07683
lowerneck -7.49272 -14.837 -21.6791
upperneck 36.9934 -20.4496 12.6053
head 19.5258 -9.70277 5.48427
rclavicle 1.59028e-015 -8.39865e-015
rhumerus 48.2034 13.0569 -8.66821
rradius 112.622
rwrist -47.0078
rhand -55.396 -2.92355
rfingers 7.12502
rthumb -27.7589 -30.894
lclavicle 1.59028e-015 -8.39865e-015
lhumerus 65.7865 -16.0826 17.7435
lradius 107.92
lwrist 46.9499
lhand -57.3208 -17.1895
lfingers 7.12502
lthumb -29.5977 10.4699
rfemur -74.5578 -19.309 22.249
rtibia 120.666
rfoot 21.858 19.3637
rtoes -35.3535
lfemur -67.9265 5.46403 -18.1912
ltibia 120.135
lfoot -3.54817 -13.337
ltoes 3.34767
1303
root 7.41784 9.40802 10.5405 83.5695 1.97328 4.41868
lowerback 4.89713 1.29998 -2.27978
upperback 1.34094 1.62195 0.882337
thorax -1.4546 0.80982 2.08624
lowerneck -7.38737 -14.8313 -21.686
upperneck 36.8434 -20.4852 12.713
head 19.4356 -9.71305 5.52754
rclavicle 1.59028e-014 2.88238e-015
rhumerus 48.4098 12.1469 -8.99358
rradius 112.296
rwrist -47.4346
rhand -55.4053 -2.92687
rfingers 7.12502
rthumb -27.7678 -30.8959
lclavicle 1.59028e-014 2.88238e-015
lhumerus 66.0871 -15.4114 18.3706
lradius 107.536
lwrist 46.7948
lhand -57.3295 -16.8022
lfingers 7.12502
lthumb -29.606 10.8557
rfemur -74.2725 -19.8519 21.6244
rtibia 121.623
rfoot 21.8629 19.7439
rtoes -34.9244
lfemur -67.6551 5.7137 -17.6017
ltibia 121.012
lfoot -3.83025 -13.7457
ltoes 3.04603
1304
root 7.41823 9.41743 10.5453 83.5325 1.97809 4.41326
lowerback 4.90239 1.34243 -2.28113
upperback 1.33777 1.67792 0.886636
thorax -1.46398 0.83773 2.08769
lowerneck -7.29941 -14.8325 -21.6714
upperneck 36.7209 -20.5214 12.786
head 19.3569 -9.72271 5.55042
rclavicle -3.18055e-015 -2.78299e-015
rhumerus 48.617 11.2156 -9.32282
rradius 111.982
rwrist -48.0167
rhand -55.3739 -2.98454
rfingers 7.12502
rthumb -27.7377 -30.9584
lclavicle -3.18055e-015 -2.78299e-015
lhumerus 66.4241 -14.6907 18.9524
lradius 107.136
lwrist 46.761
lhand -57.3277 -16.3028
lfingers 7.12502
lthumb -29.6043 11.3554
rfemur -73.9667 -20.4095 20.9474
rtibia 122.592
rfoot 21.8666 20.1609
rtoes -34.4909
lfemur -67.3489 5.98802 -16.9777
ltibia 121.929
lfoot -4.04199 -14.1878
ltoes 2.96712
1305
root 7.41895 9.42685 10.5497 83.5082 1.98029 4.40563
lowerback 4.89646 1.38285 -2.27313
upperback 1.33314 1.73184 0.88528
thorax -1.46805 0.864552 2.07843
lowerneck -7.23105 -14.8408 -21.6365
upperneck 36.6267 -20.5576 12.8239
head 19.2904 -9.73166 5.55293
rclavicle -3.49861e-014 -7.40473e-015
rhumerus 48.8292 10.253 -9.6781
rradius 111.677
rwrist -48.7558
rhand -55.2639 -3.06539
rfingers 7.12502
rthumb -27.6325 -31.0561
lclavicle -3.49861e-014 -7.40473e-015
lhumerus 66.7851 -13.9276 19.5045
lradius 106.709
lwrist 46.8073
lhand -57.2885 -15.6402
lfingers 7.12502
lthumb -29.5669 12.0247
rfemur -73.6475 -20.9862 20.2154
rtibia 123.574
rfoot 21.8909 20.6224
rtoes -34.0628
lfemur -67.0173 6.28894 -16.3176
ltibia 122.888
lfoot -4.22932 -14.6638
ltoes 3.01514
1306
root 7.4199 9.43639 10.554 83.49 1.97714 4.39463
lowerback 4.8872 1.4191 -2.26094
upperback 1.32931 1.78041 0.878398
thorax -1.46883 0.888665 2.06156
lowerneck -7.18548 -14.853 -21.5787
upperneck 36.5606 -20.5877 12.8211
head 19.2332 -9.73748 5.53359
rclavicle 2.22639e-014 2.5345e-015
rhumerus 49.0593 9.26671 -10.0482
rradius 111.369
rwrist -49.5625
rhand -55.1191 -3.15195
rfingers 7.12502
rthumb -27.494 -31.1648
lclavicle 2.22639e-014 2.5345e-015
lhumerus 67.1617 -13.1173 20.0302
lradius 106.248
lwrist 46.926
lhand -57.2653 -15.0606
lfingers 7.12502
lthumb -29.5448 12.6082
rfemur -73.3039 -21.5825 19.4195
rtibia 124.564
rfoot 21.9899 21.0779
rtoes -33.5568
lfemur -66.6475 6.61843 -15.6161
ltibia 123.879
lfoot -4.34569 -15.2042
ltoes 3.27885
1307
root 7.42106 9.44623 10.5591 83.4796 1.96849 4.38196
lowerback 4.87521 1.45242 -2.24796
upperback 1.32556 1.82515 0.867688
thorax -1.46764 0.910847 2.04064
lowerneck -7.16702 -14.8685 -21.4884
upperneck 36.5347 -20.604 12.7554
head 19.1851 -9.73731 5.4825
rclavicle -3.18055e-015 1.98785e-015
rhumerus 49.2992 8.31528 -10.3929
rradius 111.039
rwrist -50.1934
rhand -55.0792 -3.18425
rfingers 7.12502
rthumb -27.4559 -31.2032
lclavicle -3.18055e-015 1.98785e-015
lhumerus 67.5176 -12.3432 20.5365
lradius 105.76
lwrist 46.9447
lhand -57.1847 -14.5046
lfingers 7.12502
lthumb -29.4678 13.1778
rfemur -72.931 -22.2071 18.5578
rtibia 125.554
rfoot 22.2074 21.5076
rtoes -32.9394
lfemur -66.273 6.97256 -14.8685
ltibia 124.913
lfoot -4.52401 -15.7858
ltoes 3.2637
